<svg width="114" height="128" viewBox="0 0 114 128" fill="none" xmlns="http://www.w3.org/2000/svg">
<path d="M64 111C81.6731 111 96 96.6731 96 79C96 61.3269 81.6731 47 64 47C46.3269 47 32 61.3269 32 79" stroke="#888787" stroke-width="12"/>
<path d="M32 90L47.5885 72.75H16.4115L32 90Z" fill="#888787"/>
<path d="M42.0888 55.681C34.1002 63.3092 21.4403 63.017 13.8121 55.0284C6.18387 47.0398 6.47603 34.3799 14.4646 26.7517C22.4532 19.1235 35.1132 19.4156 42.7414 27.4042" stroke="#888787" stroke-width="12"/>
<path d="M50.0739 30.7309L31.0379 33.8109L47.3712 11.6377L50.0739 30.7309Z" fill="#888787"/>
<path d="M114 111.4L101.25 125.603V97.1972L114 111.4Z" fill="#888787"/>
<line x1="3" y1="111" x2="105" y2="111" stroke="#888787" stroke-width="12"/>
</svg>
